<?xml version="1.0" encoding="UTF-8" standalone="no"?>
<svg
   xmlns:dc="http://purl.org/dc/elements/1.1/"
   xmlns:cc="http://creativecommons.org/ns#"
   xmlns:rdf="http://www.w3.org/1999/02/22-rdf-syntax-ns#"
   xmlns:svg="http://www.w3.org/2000/svg"
   xmlns="http://www.w3.org/2000/svg"
   xmlns:xlink="http://www.w3.org/1999/xlink"
   xmlns:sodipodi="http://sodipodi.sourceforge.net/DTD/sodipodi-0.dtd"
   xmlns:inkscape="http://www.inkscape.org/namespaces/inkscape"
   width="640"
   height="480"
   id="svg3128"
   version="1.1"
   inkscape:version="0.48.5 r10040"
   sodipodi:docname="carimg.svg"
   inkscape:export-filename="/Users/gary/Projects/Pygame/carimg.png"
   inkscape:export-xdpi="90"
   inkscape:export-ydpi="90">
  <metadata
     id="metadata3234">
    <rdf:RDF>
      <cc:Work
         rdf:about="">
        <dc:format>image/svg+xml</dc:format>
        <dc:type
           rdf:resource="http://purl.org/dc/dcmitype/StillImage" />
        <dc:title>Red Car - Top View</dc:title>
      </cc:Work>
    </rdf:RDF>
  </metadata>
  <sodipodi:namedview
     pagecolor="#ffffff"
     bordercolor="#666666"
     borderopacity="1"
     objecttolerance="10"
     gridtolerance="10"
     guidetolerance="10"
     inkscape:pageopacity="0"
     inkscape:pageshadow="2"
     inkscape:window-width="1192"
     inkscape:window-height="852"
     id="namedview3232"
     showgrid="false"
     inkscape:zoom="0.71666667"
     inkscape:cx="299.06977"
     inkscape:cy="351.62791"
     inkscape:window-x="0"
     inkscape:window-y="0"
     inkscape:window-maximized="0"
     inkscape:current-layer="svg3128" />
  <title
     id="title3130">Red Car - Top View</title>
  <defs
     id="defs3132">
    <linearGradient
       id="linearGradient3876">
      <stop
         stop-color="#000000"
         offset="0"
         id="stop3878" />
      <stop
         stop-color="#b3b3b3"
         stop-opacity="0"
         offset="1"
         id="stop3880" />
    </linearGradient>
    <linearGradient
       id="linearGradient3866">
      <stop
         stop-color="#000000"
         offset="0"
         id="stop3868" />
      <stop
         stop-color="#cccccc"
         stop-opacity="0"
         offset="1"
         id="stop3870" />
    </linearGradient>
    <linearGradient
       id="linearGradient3767">
      <stop
         stop-color="#333333"
         offset="0"
         id="stop3769" />
      <stop
         stop-color="#808080"
         stop-opacity="0"
         offset="1"
         id="stop3771" />
    </linearGradient>
    <linearGradient
       id="linearGradient3759">
      <stop
         stop-color="#1a1a1a"
         offset="0"
         id="stop3761" />
      <stop
         stop-color="#f30000"
         stop-opacity="0"
         offset="1"
         id="stop3763" />
    </linearGradient>
    <linearGradient
       gradientUnits="userSpaceOnUse"
       xlink:href="#linearGradient3759"
       id="linearGradient3765"
       y2="535.37097"
       x2="883.75842"
       y1="542.3974"
       x1="897.22186" />
    <linearGradient
       gradientUnits="userSpaceOnUse"
       xlink:href="#linearGradient3767"
       id="linearGradient3773"
       y2="533.5"
       x2="874.86749"
       y1="537.5"
       x1="879.89642" />
    <linearGradient
       gradientUnits="userSpaceOnUse"
       xlink:href="#linearGradient3759"
       id="linearGradient3785"
       y2="535.37097"
       x2="876.64569"
       y1="552.05042"
       x1="880.71014" />
    <linearGradient
       gradientUnits="userSpaceOnUse"
       xlink:href="#linearGradient3767"
       id="linearGradient3789"
       y2="528.41949"
       x2="876.13763"
       y1="528.35504"
       x1="887.89642" />
    <linearGradient
       gradientTransform="translate(-22,316.2677)"
       gradientUnits="userSpaceOnUse"
       xlink:href="#linearGradient3767"
       id="linearGradient3811"
       y2="528.41949"
       x2="876.13763"
       y1="528.35504"
       x1="887.89642" />
    <linearGradient
       gradientTransform="translate(-24,320.2677)"
       gradientUnits="userSpaceOnUse"
       xlink:href="#linearGradient3767"
       id="linearGradient3813"
       y2="533.5"
       x2="874.86749"
       y1="537.5"
       x1="879.89642" />
    <linearGradient
       gradientUnits="userSpaceOnUse"
       xlink:href="#linearGradient3767"
       id="linearGradient3843"
       y2="528.41949"
       x2="876.13763"
       y1="528.35504"
       x1="887.89642" />
    <linearGradient
       gradientUnits="userSpaceOnUse"
       xlink:href="#linearGradient3767"
       id="linearGradient3845"
       y2="533.5"
       x2="874.86749"
       y1="537.5"
       x1="879.89642" />
    <linearGradient
       gradientUnits="userSpaceOnUse"
       xlink:href="#linearGradient3759"
       id="linearGradient3847"
       y2="535.37097"
       x2="883.75842"
       y1="542.3974"
       x1="897.22186" />
    <linearGradient
       gradientUnits="userSpaceOnUse"
       xlink:href="#linearGradient3759"
       id="linearGradient3849"
       y2="535.37097"
       x2="876.64569"
       y1="552.05042"
       x1="880.71014" />
    <linearGradient
       gradientTransform="translate(-22,316.2677)"
       gradientUnits="userSpaceOnUse"
       xlink:href="#linearGradient3767"
       id="linearGradient3851"
       y2="528.41949"
       x2="876.13763"
       y1="528.35504"
       x1="887.89642" />
    <linearGradient
       gradientTransform="translate(-24,320.2677)"
       gradientUnits="userSpaceOnUse"
       xlink:href="#linearGradient3767"
       id="linearGradient3853"
       y2="533.5"
       x2="874.86749"
       y1="537.5"
       x1="879.89642" />
    <linearGradient
       gradientTransform="matrix(0.99043406,0.13798685,-0.13798685,0.99043406,130.62129,-29.069768)"
       gradientUnits="userSpaceOnUse"
       xlink:href="#linearGradient3866"
       id="linearGradient3872"
       y2="863.93677"
       x2="242.62505"
       y1="865.19409"
       x1="263.89166" />
    <linearGradient
       gradientTransform="matrix(0.99043406,0.13798685,-0.13798685,0.99043406,120.60901,-30.101958)"
       gradientUnits="userSpaceOnUse"
       xlink:href="#linearGradient3876"
       id="linearGradient3874"
       y2="863.93677"
       x2="232.43333"
       y1="864.27179"
       x1="252.14371" />
    <linearGradient
       gradientTransform="matrix(0.99043406,-0.13798685,-0.13798685,-0.99043406,120.60901,1463.2521)"
       gradientUnits="userSpaceOnUse"
       xlink:href="#linearGradient3876"
       id="linearGradient3886"
       y2="863.93677"
       x2="232.43333"
       y1="864.27179"
       x1="252.14371" />
    <linearGradient
       gradientTransform="matrix(0.99043406,-0.13798685,-0.13798685,-0.99043406,130.62129,1462.2199)"
       gradientUnits="userSpaceOnUse"
       xlink:href="#linearGradient3866"
       id="linearGradient3888"
       y2="863.93677"
       x2="242.62505"
       y1="865.19409"
       x1="263.89166" />
    <linearGradient
       gradientTransform="matrix(0.99043406,0.13798685,-0.13798685,0.99043406,146.04655,-33.884618)"
       gradientUnits="userSpaceOnUse"
       xlink:href="#linearGradient3759"
       id="linearGradient3960"
       y2="863.93677"
       x2="232.43333"
       y1="865.07489"
       x1="254.25746" />
    <linearGradient
       gradientTransform="matrix(0.99043406,0.13798685,-0.13798685,0.99043406,156.30883,-32.602428)"
       gradientUnits="userSpaceOnUse"
       xlink:href="#linearGradient3759"
       id="linearGradient3962"
       y2="863.93677"
       x2="242.62505"
       y1="865.19409"
       x1="263.89166" />
    <linearGradient
       gradientTransform="translate(21.43754,297.90666)"
       gradientUnits="userSpaceOnUse"
       xlink:href="#linearGradient3759"
       id="linearGradient3991"
       y2="535.37097"
       x2="876.64569"
       y1="552.05042"
       x1="880.71014" />
    <linearGradient
       gradientTransform="translate(21.43754,297.90666)"
       gradientUnits="userSpaceOnUse"
       xlink:href="#linearGradient3759"
       id="linearGradient3994"
       y2="535.37097"
       x2="883.75842"
       y1="542.3974"
       x1="897.22186" />
    <linearGradient
       gradientTransform="translate(21.43754,297.90666)"
       gradientUnits="userSpaceOnUse"
       xlink:href="#linearGradient3759"
       id="linearGradient3997"
       y2="533.5"
       x2="874.86749"
       y1="537.5"
       x1="879.89642" />
    <linearGradient
       gradientTransform="translate(21.43754,297.90666)"
       gradientUnits="userSpaceOnUse"
       xlink:href="#linearGradient3759"
       id="linearGradient4000"
       y2="528.41949"
       x2="876.13763"
       y1="528.35504"
       x1="887.89642" />
    <linearGradient
       gradientTransform="matrix(0.89332217,0,0,0.89332217,92.369757,365.14619)"
       gradientUnits="userSpaceOnUse"
       xlink:href="#linearGradient3759"
       id="linearGradient4008"
       y2="533.5"
       x2="874.86749"
       y1="537.5"
       x1="879.89642" />
    <linearGradient
       gradientTransform="matrix(0.89332217,0,0,0.89332217,94.156401,361.5729)"
       gradientUnits="userSpaceOnUse"
       xlink:href="#linearGradient3759"
       id="linearGradient4011"
       y2="528.41949"
       x2="876.13763"
       y1="528.35504"
       x1="887.89642" />
    <linearGradient
       gradientTransform="translate(21.43754,297.90666)"
       gradientUnits="userSpaceOnUse"
       xlink:href="#linearGradient3759"
       id="linearGradient4131"
       y2="501.07629"
       x2="835.98706"
       y1="552.05042"
       x1="880.71014" />
    <linearGradient
       gradientTransform="translate(21.43754,297.90666)"
       gradientUnits="userSpaceOnUse"
       xlink:href="#linearGradient3759"
       id="linearGradient4133"
       y2="531.909"
       x2="815.8241"
       y1="537.5"
       x1="879.89642" />
    <linearGradient
       gradientTransform="matrix(0.89332217,0,0,0.89332217,92.369757,365.14619)"
       gradientUnits="userSpaceOnUse"
       xlink:href="#linearGradient3759"
       id="linearGradient4135"
       y2="533.5"
       x2="812.13739"
       y1="537.5"
       x1="879.89642" />
    <linearGradient
       gradientTransform="matrix(0.89332217,0,0,0.89332217,94.156401,361.5729)"
       gradientUnits="userSpaceOnUse"
       xlink:href="#linearGradient3759"
       id="linearGradient4137"
       y2="529.60681"
       x2="805.29413"
       y1="528.35504"
       x1="887.89642" />
    <linearGradient
       gradientTransform="matrix(0.99043406,0.13798685,-0.13798685,0.99043406,146.04655,-33.884618)"
       gradientUnits="userSpaceOnUse"
       xlink:href="#linearGradient3759"
       id="linearGradient4139"
       y2="867.67596"
       x2="205.59436"
       y1="873.13715"
       x1="229.69746" />
    <linearGradient
       gradientTransform="matrix(0.99043406,0.13798685,-0.13798685,0.99043406,156.30883,-32.602428)"
       gradientUnits="userSpaceOnUse"
       xlink:href="#linearGradient3759"
       id="linearGradient4141"
       y2="872.64813"
       x2="216.55965"
       y1="873.05804"
       x1="238.83344" />
    <linearGradient
       gradientTransform="translate(8.3085117,-2.651773)"
       gradientUnits="userSpaceOnUse"
       xlink:href="#linearGradient3759"
       id="linearGradient4149"
       y2="834.67706"
       x2="848.16486"
       y1="842.30206"
       x1="871.32599" />
    <linearGradient
       gradientTransform="matrix(0.89332217,0,0,0.89332217,80.348949,365.14607)"
       gradientUnits="userSpaceOnUse"
       xlink:href="#linearGradient3759"
       id="linearGradient4153"
       y2="533.5"
       x2="812.13739"
       y1="537.5"
       x1="879.89642" />
    <linearGradient
       gradientTransform="translate(27.624731,296.49233)"
       gradientUnits="userSpaceOnUse"
       xlink:href="#linearGradient3759"
       id="linearGradient4155"
       y2="531.909"
       x2="815.8241"
       y1="537.5"
       x1="879.89642" />
    <linearGradient
       gradientTransform="matrix(1,0,0,-1,8.3085117,1452.0379)"
       gradientUnits="userSpaceOnUse"
       xlink:href="#linearGradient3759"
       id="linearGradient4185"
       y2="834.67706"
       x2="848.16486"
       y1="842.30206"
       x1="871.32599" />
    <linearGradient
       gradientTransform="matrix(1,0,0,-1,21.437547,1151.4796)"
       gradientUnits="userSpaceOnUse"
       xlink:href="#linearGradient3759"
       id="linearGradient4187"
       y2="528.41949"
       x2="876.13763"
       y1="528.35504"
       x1="887.89642" />
    <linearGradient
       gradientTransform="matrix(1,0,0,-1,27.624731,1152.8938)"
       gradientUnits="userSpaceOnUse"
       xlink:href="#linearGradient3759"
       id="linearGradient4189"
       y2="531.909"
       x2="815.8241"
       y1="537.5"
       x1="879.89642" />
    <linearGradient
       gradientTransform="matrix(1,0,0,-1,21.437547,1151.4796)"
       gradientUnits="userSpaceOnUse"
       xlink:href="#linearGradient3759"
       id="linearGradient4191"
       y2="535.37097"
       x2="883.75842"
       y1="542.3974"
       x1="897.22186" />
    <linearGradient
       gradientTransform="matrix(1,0,0,-1,21.437547,1151.4796)"
       gradientUnits="userSpaceOnUse"
       xlink:href="#linearGradient3759"
       id="linearGradient4193"
       y2="501.07629"
       x2="835.98706"
       y1="552.05042"
       x1="880.71014" />
    <linearGradient
       gradientTransform="matrix(0.89332217,0,0,-0.89332217,94.156408,1087.8133)"
       gradientUnits="userSpaceOnUse"
       xlink:href="#linearGradient3759"
       id="linearGradient4195"
       y2="529.60681"
       x2="805.29413"
       y1="528.35504"
       x1="887.89642" />
    <linearGradient
       gradientTransform="matrix(0.89332217,0,0,-0.89332217,80.348949,1084.24)"
       gradientUnits="userSpaceOnUse"
       xlink:href="#linearGradient3759"
       id="linearGradient4197"
       y2="533.5"
       x2="812.13739"
       y1="537.5"
       x1="879.89642" />
    <linearGradient
       gradientTransform="matrix(0.99043406,-0.13798685,-0.13798685,-0.99043406,146.04656,1483.2708)"
       gradientUnits="userSpaceOnUse"
       xlink:href="#linearGradient3759"
       id="linearGradient4199"
       y2="867.67596"
       x2="205.59436"
       y1="873.13715"
       x1="229.69746" />
    <linearGradient
       gradientTransform="matrix(0.99043406,-0.13798685,-0.13798685,-0.99043406,156.30884,1481.9887)"
       gradientUnits="userSpaceOnUse"
       xlink:href="#linearGradient3759"
       id="linearGradient4201"
       y2="872.64813"
       x2="216.55965"
       y1="873.05804"
       x1="238.83344" />
    <linearGradient
       gradientTransform="translate(21.437547,297.90654)"
       gradientUnits="userSpaceOnUse"
       xlink:href="#linearGradient3759"
       id="linearGradient4203"
       y2="528.41949"
       x2="876.13763"
       y1="528.35504"
       x1="887.89642" />
    <linearGradient
       gradientTransform="translate(21.437547,297.90654)"
       gradientUnits="userSpaceOnUse"
       xlink:href="#linearGradient3759"
       id="linearGradient4205"
       y2="535.37097"
       x2="883.75842"
       y1="542.3974"
       x1="897.22186" />
    <linearGradient
       gradientTransform="translate(21.437547,297.90654)"
       gradientUnits="userSpaceOnUse"
       xlink:href="#linearGradient3759"
       id="linearGradient4207"
       y2="501.07629"
       x2="835.98706"
       y1="552.05042"
       x1="880.71014" />
    <linearGradient
       gradientTransform="matrix(0.89332217,0,0,0.89332217,94.156408,361.57278)"
       gradientUnits="userSpaceOnUse"
       xlink:href="#linearGradient3759"
       id="linearGradient4209"
       y2="529.60681"
       x2="805.29413"
       y1="528.35504"
       x1="887.89642" />
    <linearGradient
       gradientTransform="matrix(0.99043406,0.13798685,-0.13798685,0.99043406,146.04656,-33.884741)"
       gradientUnits="userSpaceOnUse"
       xlink:href="#linearGradient3759"
       id="linearGradient4211"
       y2="867.67596"
       x2="205.59436"
       y1="873.13715"
       x1="229.69746" />
    <linearGradient
       gradientTransform="matrix(0.99043406,0.13798685,-0.13798685,0.99043406,156.30884,-32.602551)"
       gradientUnits="userSpaceOnUse"
       xlink:href="#linearGradient3759"
       id="linearGradient4213"
       y2="872.64813"
       x2="216.55965"
       y1="873.05804"
       x1="238.83344" />
  </defs>
  <g
     id="g3194"
     transform="matrix(0.24735142,0,0,0.25913674,30.105924,64.453827)"
     inkscape:export-xdpi="90"
     inkscape:export-ydpi="90">
    <title
       id="title3196">Layer 1</title>
    <g
       display="inline"
       id="layer1"
       style="display:inline">
      <g
         id="g3890">
        <path
           stroke-miterlimit="4"
           id="path3855"
           d="m 391.68838,93.998276 c -0.94442,0.0056 -2.95556,0.19088 -4.04962,0.586914 l -2.1911,0.939056 5.41907,22.498234 -78.13645,0.17607 c -1.5252,0.003 -3.05981,-0.009 -4.59735,-0.0195 -3.07513,-0.0215 -6.17584,-0.0654 -9.29266,-0.13694 -4.56546,-0.10474 -9.18323,-0.2585 -13.81183,-0.44997 -0.24783,-0.0103 -0.49542,-0.0286 -0.74341,-0.0391 -9.34823,-0.39452 -18.78561,-0.93385 -28.19088,-1.52596 -12.72499,-0.80303 -25.36708,-1.69494 -37.64012,-2.4259 -9.09511,-0.5417 -17.98735,-0.98888 -26.52803,-1.25208 -5.86545,-0.18076 -11.55906,-0.2858 -17.05933,-0.25432 -2.70184,0.0155 -5.36379,0.0584 -7.96233,0.13695 -2.59854,0.0786 -5.24627,0.22242 -7.9232,0.41084 -1.33847,0.0942 -2.67804,0.19422 -4.03006,0.31302 -4.04979,0.35584 -8.16666,0.82725 -12.2663,1.36945 -0.006,6.1e-4 -0.0132,-6.1e-4 -0.0195,0 -2.73735,0.3622 -5.45808,0.76723 -8.17752,1.19338 -2.71943,0.42617 -5.42987,0.8751 -8.09927,1.3499 -2.66299,0.47365 -5.30279,0.97998 -7.88407,1.48683 -0.006,0.001 -0.0133,-0.001 -0.0195,0 -1.29363,0.2541 -2.54781,0.50346 -3.81488,0.76298 -3.79466,0.77732 -7.47095,1.57515 -10.95553,2.36721 -0.006,0.001 -0.0132,-0.001 -0.0195,0 -2.32664,0.52894 -4.562085,1.04872 -6.710263,1.5651 -4.296997,1.03194 -8.210678,2.02498 -11.601128,2.91498 -5.085663,1.33502 -9.003937,2.45856 -11.32724,3.13019 -1.548584,0.44809 -2.386734,0.70429 -2.386734,0.70429 l -8.56879,2.34764 c -0.564938,0.1557 -1.113171,0.43376 -1.64333,0.82168 -0.180126,0.13178 -0.352043,0.27289 -0.528217,0.43039 -0.688381,0.61328 -1.346607,1.42153 -1.975914,2.40633 -0.0029,0.004 0.0029,0.0152 0,0.0195 -0.313244,0.49127 -0.640091,1.02698 -0.939045,1.60422 -0.0026,0.005 0.0026,0.0145 0,0.0195 -0.298973,0.57826 -0.595448,1.19835 -0.88036,1.85853 -0.0023,0.006 0.0023,0.0139 0,0.0195 -2.295696,5.32724 -4.144371,13.22901 -5.595139,22.67429 -9.42e-4,0.006 9.42e-4,0.0133 0,0.0195 -0.02251,0.14659 -0.03637,0.30264 -0.05869,0.44996 -0.315907,2.08565 -0.621048,4.25594 -0.899918,6.47559 -0.01908,0.15192 -0.03979,0.2975 -0.05869,0.44996 -0.314003,2.53116 -0.592682,5.13504 -0.860798,7.8059 -6.26e-4,0.006 6.29e-4,0.0132 0,0.0195 -0.133682,1.33248 -0.268639,2.68872 -0.391266,4.04969 -5.76e-4,0.006 5.76e-4,0.0131 0,0.0195 -0.122585,1.3612 -0.240379,2.72279 -0.352139,4.10837 -5.19e-4,0.006 5.11e-4,0.0131 0,0.0195 -0.223965,2.7781 -0.424561,5.6004 -0.606468,8.45149 -4.12e-4,0.006 4.16e-4,0.0131 0,0.0195 -0.54628,8.56676 -0.91375,17.39678 -1.115116,26.01969 -1.49e-4,0.006 1.53e-4,0.0129 0,0.0195 -0.134243,5.75292 -0.195698,11.40223 -0.195698,16.84452 0,0.60579 0.01725,1.22883 0.01956,1.83897 -0.0023,0.61015 -0.01956,1.2332 -0.01956,1.83899 0,5.44229 0.06145,11.0916 0.195637,16.84433 1.56e-4,0.007 -1.53e-4,0.013 0,0.0195 0.201363,8.6229 0.56884,17.45291 1.115116,26.01965 4.12e-4,0.006 -4.08e-4,0.0132 0,0.0195 0.181908,2.8511 0.382504,5.67337 0.606468,8.45147 5.11e-4,0.006 -5.23e-4,0.0133 0,0.0195 0.111759,1.38559 0.229553,2.74717 0.352139,4.1084 5.72e-4,0.006 -5.76e-4,0.0132 0,0.0195 0.122627,1.36099 0.25758,2.7172 0.391273,4.04969 6.18e-4,0.006 -6.26e-4,0.0132 0,0.0195 0.268108,2.67086 0.546795,5.27475 0.860786,7.8059 0.01891,0.15244 0.03961,0.29804 0.05869,0.44996 0.278862,2.21963 0.584011,4.38995 0.899914,6.47555 0.02232,0.14734 0.03619,0.30341 0.05869,0.44998 9.46e-4,0.006 -9.35e-4,0.0135 0,0.0195 1.450783,9.44529 3.299458,17.34705 5.595158,22.67429 0.0023,0.006 -0.0023,0.0141 0,0.0195 0.284901,0.66019 0.581371,1.28027 0.880348,1.85852 0.0026,0.005 -0.0026,0.0145 0,0.0195 0.298954,0.57724 0.625797,1.11295 0.939041,1.60422 0.0029,0.004 -0.0029,0.0151 0,0.0195 0.629311,0.9848 1.287529,1.79306 1.97591,2.40634 0.176174,0.1575 0.348099,0.29862 0.528221,0.43039 0.530163,0.38791 1.078392,0.66599 1.643333,0.82169 l 8.56879,2.34762 c 0,0 0.83815,0.2562 2.386742,0.70429 2.323296,0.67163 6.24157,1.79517 11.327232,3.13019 3.39045,0.89001 7.304123,1.88305 11.601128,2.91501 2.148178,0.51635 4.383617,1.03613 6.710257,1.56509 0.006,0.001 0.0132,-0.001 0.0195,0 3.48458,0.79205 7.16088,1.58987 10.95553,2.36719 1.26708,0.25952 2.52125,0.50888 3.81487,0.763 0.006,0.001 0.0133,-0.001 0.0195,0 2.58128,0.50683 5.22108,1.01318 7.88407,1.48681 2.66941,0.47483 5.37984,0.92374 8.09928,1.34992 2.71942,0.42615 5.44015,0.83118 8.17752,1.19336 0.006,6.1e-4 0.0132,-6.1e-4 0.0195,0 4.09964,0.5422 8.21651,1.01361 12.26628,1.36947 1.35204,0.11878 2.69161,0.21882 4.03008,0.31302 2.67692,0.18842 5.32464,0.33228 7.92318,0.41083 2.59856,0.0786 5.26049,0.12146 7.96233,0.13693 5.50027,0.0315 11.19388,-0.0735 17.05932,-0.2543 8.54068,-0.26321 17.43294,-0.71039 26.52805,-1.25207 12.27303,-0.73099 24.91509,-1.62287 37.64006,-2.42591 9.4053,-0.5921 18.84271,-1.13144 28.19095,-1.52597 0.24795,-0.0105 0.49554,-0.0288 0.74341,-0.0391 4.6286,-0.19147 9.24636,-0.34525 13.81179,-0.44995 3.11686,-0.0715 6.21753,-0.11548 9.29267,-0.13697 1.53753,-0.0108 3.07217,-0.0229 4.59738,-0.0195 l 78.13641,0.17609 -5.41903,22.4982 2.19107,0.93905 c 1.09408,0.39603 3.10519,0.5813 4.04965,0.58692 0.53122,0.003 1.09872,-0.0464 1.68246,-0.1565 0.19449,-0.0366 0.39035,-0.0883 0.58692,-0.13696 0.19067,-0.0473 0.39603,-0.0981 0.58691,-0.15649 0.3934,-0.12088 0.79102,-0.26392 1.17383,-0.43042 1.14035,-0.49677 2.21256,-1.20917 2.9932,-2.07373 0.006,-0.007 0.0136,-0.0129 0.0195,-0.0195 0.39114,-0.43689 0.69632,-0.90854 0.91949,-1.42817 l 7.61017,-19.60278 68.82422,0.15653 c 0.46756,0.23407 0.92407,0.46646 1.38901,0.68472 1.86508,0.87616 3.70047,1.62585 5.53643,2.26938 0.91544,0.32089 1.82663,0.61069 2.73887,0.88037 3.19278,0.94373 6.37802,1.59735 9.60565,2.03461 1.84445,0.24997 3.70984,0.43441 5.59518,0.56735 0.9426,0.0664 1.89935,0.11276 2.85626,0.15652 1.91382,0.0876 3.84296,0.13324 5.8299,0.1565 3.97375,0.0464 8.12555,0 12.52057,0 6.51709,0 12.72247,-0.33258 18.64398,-0.97818 2.36865,-0.25827 4.6897,-0.56186 6.9646,-0.9195 4.5498,-0.71527 8.90747,-1.63952 13.08795,-2.73892 1.04511,-0.27484 2.08826,-0.56262 3.1106,-0.86078 3.06695,-0.89447 6.01794,-1.89401 8.88183,-2.99325 0.95453,-0.3664 1.90436,-0.72654 2.83667,-1.11512 1.86457,-0.77722 3.68238,-1.60077 5.4582,-2.46502 0.88793,-0.43213 1.77514,-0.87687 2.64099,-1.33033 1.73187,-0.90698 3.42242,-1.8656 5.06701,-2.85632 0.82227,-0.49533 1.62525,-1.01007 2.42578,-1.52594 4.00312,-2.57934 7.73975,-5.39987 11.2099,-8.47107 2.77253,-2.45376 5.38495,-5.05829 7.82538,-7.80591 0.003,-0.004 -0.003,-0.0159 0,-0.0195 0.60755,-0.6842 1.21259,-1.37201 1.79987,-2.07373 0.003,-0.004 -0.003,-0.0157 0,-0.0195 0.58709,-0.70175 1.17425,-1.41345 1.74121,-2.13244 0.003,-0.004 -0.003,-0.0156 0,-0.0195 1.7063,-2.16495 3.32623,-4.39408 4.85174,-6.71033 0.003,-0.004 -0.003,-0.015 0,-0.0195 0.50635,-0.76914 1.01972,-1.54282 1.50635,-2.32807 0.003,-0.005 -0.003,-0.0149 0,-0.0195 1.46527,-2.3652 2.85901,-4.79071 4.14746,-7.29724 0.003,-0.005 -0.003,-0.0145 0,-0.0195 0.42762,-0.83209 0.84375,-1.67657 1.25208,-2.52371 0.003,-0.005 -0.003,-0.0143 0,-0.0195 0.4082,-0.8472 0.82385,-1.7009 1.21295,-2.56284 0.003,-0.006 -0.002,-0.0142 0,-0.0195 0.78034,-1.72937 1.52631,-3.47555 2.23023,-5.2626 0.003,-0.006 -0.003,-0.014 0,-0.0195 0.35076,-0.89078 0.68536,-1.79514 1.01733,-2.6998 0.002,-0.006 -0.002,-0.0139 0,-0.0195 0.33179,-0.90476 0.66504,-1.82053 0.97815,-2.7389 0.31305,-0.91848 0.62506,-1.84622 0.91949,-2.77804 0.002,-0.006 -0.002,-0.0138 0,-0.0195 0.29438,-0.93192 0.58497,-1.87219 0.86084,-2.81717 0.002,-0.006 -0.002,-0.0136 0,-0.0195 0.2757,-0.94507 0.54468,-1.89841 0.80207,-2.85633 0.002,-0.006 -0.002,-0.0136 0,-0.0195 0.77514,-2.8861 1.48272,-5.82586 2.09332,-8.82321 l 0,-0.0195 c 0.20258,-0.99503 0.38263,-2.00607 0.56738,-3.01282 l 0,-0.0195 c 1.29883,-7.08572 2.16736,-14.43765 2.60193,-22.04823 3.1e-4,-0.006 -4.2e-4,-0.0132 0,-0.0195 0.0613,-1.08174 0.11188,-2.17589 0.1565,-3.26714 2.4e-4,-0.006 -2.5e-4,-0.0132 0,-0.0195 0.0892,-2.18923 0.15441,-4.38678 0.17602,-6.61252 0,-0.006 -6e-5,-0.0132 0,-0.0195 0.0107,-1.1162 0.006,-2.23996 0,-3.36495 0,-0.39804 -0.0137,-0.79596 -0.0194,-1.19339 0.006,-0.39743 0.0194,-0.79535 0.0194,-1.19339 0.006,-1.12498 0.0107,-2.24875 0,-3.36494 -6e-5,-0.006 0,-0.0131 0,-0.0195 -0.0213,-2.22575 -0.0868,-4.42331 -0.17602,-6.61251 -2.5e-4,-0.006 2.4e-4,-0.0131 0,-0.0195 -0.0444,-1.09124 -0.0952,-2.18539 -0.1565,-3.26713 -4.2e-4,-0.006 3.1e-4,-0.0131 0,-0.0195 -0.43457,-7.61058 -1.3031,-14.96254 -2.60193,-22.04826 l 0,-0.0195 c -0.18475,-1.00673 -0.3648,-2.01776 -0.56738,-3.0128 l 0,-0.0195 c -0.6106,-2.99731 -1.31818,-5.9371 -2.09332,-8.8232 -0.002,-0.006 0.002,-0.0133 0,-0.0195 -0.25739,-0.9579 -0.52637,-1.91124 -0.80207,-2.85629 -0.002,-0.006 0.002,-0.0133 0,-0.0195 -0.27587,-0.94498 -0.56646,-1.88526 -0.86084,-2.81717 -0.002,-0.006 0.002,-0.0139 0,-0.0195 -0.29443,-0.93183 -0.60644,-1.85957 -0.91949,-2.77803 -0.31311,-0.91838 -0.64636,-1.83414 -0.97815,-2.73891 -0.002,-0.006 0.002,-0.014 0,-0.0195 -0.33197,-0.90466 -0.66657,-1.80904 -1.01733,-2.6998 -0.003,-0.006 0.003,-0.0139 0,-0.0195 -0.70392,-1.78707 -1.44989,-3.53322 -2.23023,-5.26262 -0.002,-0.005 0.003,-0.0139 0,-0.0195 -0.38904,-0.86194 -0.80475,-1.71564 -1.21295,-2.56284 -0.003,-0.005 0.003,-0.0146 0,-0.0195 -0.40833,-0.84712 -0.82446,-1.69161 -1.25208,-2.52371 -0.003,-0.005 0.003,-0.0146 0,-0.0195 -1.28845,-2.5065 -2.68219,-4.93203 -4.14746,-7.29725 -0.003,-0.004 0.003,-0.0146 0,-0.0195 -0.48663,-0.78524 -1,-1.55893 -1.50635,-2.32806 -0.003,-0.004 0.003,-0.0151 0,-0.0195 -1.52551,-2.31627 -3.14538,-4.54538 -4.85174,-6.71033 -0.003,-0.004 0.003,-0.0159 0,-0.0195 -0.56696,-0.71899 -1.15412,-1.43071 -1.74121,-2.13245 -0.003,-0.004 0.003,-0.0158 0,-0.0195 -0.58722,-0.70174 -1.19232,-1.38956 -1.79987,-2.07375 -0.003,-0.004 0.003,-0.0159 0,-0.0195 -2.44043,-2.74762 -5.05285,-5.35214 -7.82538,-7.80589 -3.47015,-3.0712 -7.20678,-5.89173 -11.2099,-8.47109 -0.80059,-0.51587 -1.60357,-1.03059 -2.42578,-1.52595 -1.64453,-0.99072 -3.33508,-1.94933 -5.06701,-2.85629 -0.86585,-0.45348 -1.75306,-0.89821 -2.64099,-1.33033 -1.77588,-0.86428 -3.59369,-1.68782 -5.4582,-2.46502 -0.93231,-0.38861 -1.88214,-0.74874 -2.83667,-1.11513 -2.86389,-1.09924 -5.81488,-2.09878 -8.88183,-2.99324 -1.02234,-0.29816 -2.06549,-0.58595 -3.1106,-0.8608 -4.18048,-1.09939 -8.53815,-2.02366 -13.08795,-2.73892 -2.2749,-0.35765 -4.59595,-0.66122 -6.9646,-0.91948 -5.92139,-0.64645 -12.12677,-0.97899 -18.64386,-0.97899 -4.39508,0 -8.54688,-0.0464 -12.5206,0 -1.98694,0.0233 -3.91608,0.0689 -5.82989,0.15651 -0.95688,0.0437 -1.91364,0.0901 -2.85627,0.1565 -1.88531,0.13293 -3.7507,0.31738 -5.59515,0.56735 -3.22763,0.43728 -6.41287,1.0909 -9.60565,2.03462 -0.91226,0.26969 -1.82343,0.55947 -2.73886,0.88036 -1.83597,0.64354 -3.67142,1.39323 -5.53644,2.26939 -0.46497,0.21825 -0.92142,0.45065 -1.38904,0.68473 l -68.82422,0.1565 -7.6102,-19.60278 c -0.22314,-0.519608 -0.52832,-0.991234 -0.91949,-1.428146 -0.006,-0.0066 -0.0133,-0.0129 -0.0195,-0.01953 -0.78061,-0.864601 -1.85285,-1.576973 -2.9932,-2.073746 -0.38278,-0.166481 -0.78036,-0.30954 -1.17383,-0.430405 -0.19088,-0.0584 -0.39618,-0.109184 -0.58688,-0.156509 -0.19659,-0.04864 -0.39243,-0.100319 -0.58698,-0.13694 -0.58367,-0.110123 -1.15118,-0.159645 -1.68246,-0.156509 l 3e-5,-2.52e-4 z"
           inkscape:connector-curvature="0"
           style="fill:#000000;fill-opacity:0.99607801;stroke:#191919;stroke-width:14;stroke-miterlimit:4" />
        <path
           id="path2853"
           d="m 391.68838,93.998276 c -0.94442,0.0056 -2.95556,0.191643 -4.04962,0.586914 l -2.1911,0.939056 5.41907,22.439534 -78.13645,0.17607 c -48.80767,0.10356 -104.24931,-7.20172 -145.82594,-5.94735 -41.57664,1.25437 -95.234877,17.52904 -95.234877,17.52904 l -8.568794,2.3672 C 51.048705,135.4044 46.99995,193.04416 46.99995,236.50001 c 0,0.6968 0.01668,1.41053 0.01957,2.11287 -0.0029,0.70235 -0.01957,1.41608 -0.01957,2.11287 0,43.45589 4.048756,101.0956 16.100719,104.41127 l 8.568794,2.36722 c 0,0 53.658237,16.27466 95.234877,17.52902 41.57663,1.25437 97.01827,-6.0509 145.82594,-5.94736 l 78.13645,0.17609 -5.41907,22.43951 2.1911,0.93906 c 1.09406,0.39529 3.10517,0.5813 4.04962,0.58691 0.53125,0.003 1.09876,-0.0466 1.6825,-0.15652 0.19452,-0.0366 0.39035,-0.0884 0.58691,-0.13693 0.19065,-0.0472 0.396,-0.0982 0.58689,-0.15653 0.39343,-0.1206 0.79101,-0.26422 1.17383,-0.43039 1.14035,-0.49582 2.21258,-1.19119 2.99319,-2.05417 0.006,-0.007 0.0136,-0.013 0.0195,-0.0195 0.39118,-0.43609 0.69635,-0.90951 0.9195,-1.42816 l 7.6102,-19.56366 68.82418,0.15653 c 14.96253,7.47638 28.49173,6.71032 46.07193,6.71032 83.41877,0 117.461,-54.20623 117.06775,-126.06823 0,-0.48845 -0.0118,-0.98014 -0.0194,-1.46727 0.008,-0.48716 0.0194,-0.97884 0.0194,-1.46729 0.39325,-71.86198 -33.64898,-126.06823 -117.06769,-126.06823 -17.58023,0 -31.10946,-0.76604 -46.07196,6.71034 l -68.82421,0.15651 -7.6102,-19.563671 c -0.22315,-0.518623 -0.52832,-0.99205 -0.9195,-1.428146 -0.006,-0.0065 -0.0133,-0.01289 -0.0195,-0.01952 -0.78061,-0.862976 -1.85284,-1.55835 -2.99319,-2.054184 -0.38279,-0.166176 -0.78037,-0.309769 -1.17383,-0.430405 -0.19086,-0.05829 -0.39618,-0.109299 -0.58689,-0.156509 -0.19656,-0.04858 -0.39239,-0.100372 -0.58691,-0.13694 -0.58371,-0.109932 -1.15121,-0.159645 -1.68249,-0.156509 l 0,-9.9e-5 z"
           inkscape:connector-curvature="0"
           style="fill:#ca0000;fill-opacity:0.99607801" />
        <path
           id="path3643"
           d="m 260.10486,320.33777 c -20.88716,0 -40.88457,1.12689 -59.3555,3.16934 16.06424,30.49658 61.34228,18.94721 128.68838,19.73972 31.1055,0.36605 56.05735,1.17651 76.08225,1.48684 -29.52371,-14.60806 -83.59265,-24.3959 -145.41513,-24.3959 z"
           inkscape:connector-curvature="0"
           style="opacity:0.9;fill:#262626;fill-opacity:0.99607801" />
        <path
           id="path3658"
           d="m 260.10486,320.33777 c -2.00736,0 -3.99604,0.0185 -5.98642,0.0392 0.51225,10.12366 4.0242,18.94171 9.13614,24.31763 2.9245,-0.0473 5.94427,-0.12305 9.03833,-0.21521 -5.36249,-5.12869 -9.13556,-13.91556 -9.84043,-24.14157 -0.78335,-0.003 -1.56177,0 -2.34762,0 z"
           inkscape:connector-curvature="0"
           style="opacity:0.5;fill:#000000;fill-opacity:0.99607801" />
        <path
           stroke-miterlimit="4"
           id="path3707"
           d="m 628.64111,302.97375 -3.18884,0.37171 c -13.48779,1.57303 -23.59418,16.26355 -24.59119,34.13858 l -0.2348,4.46051 3.28662,-3.03235 c 9.94721,-9.19052 17.71887,-20.35086 23.41748,-33.02347 l 1.31073,-2.91498 z"
           inkscape:connector-curvature="0"
           style="fill:#212121;fill-rule:nonzero;stroke:#191919;stroke-width:5;stroke-miterlimit:4" />
        <path
           stroke-miterlimit="4"
           id="path3715"
           d="m 499.9613,309.85895 c 0,0 49.88092,-14.14621 65.96949,-20.02179 16.80242,-6.13629 61.88928,-24.50662 61.88928,-24.50662 0,0 -5.47217,26.58761 -19.08344,36.25885 -48.34454,34.35049 -145.66992,33.71441 -145.66992,33.71441"
           inkscape:connector-curvature="0"
           style="opacity:0.5;fill:none;stroke:#292929;stroke-width:6;stroke-linecap:round;stroke-linejoin:round;stroke-miterlimit:4" />
        <path
           id="path3757"
           d="m 554.11035,296.9249 -2.77801,1.46728 c 0.61926,0.72421 1.12408,1.52042 1.48687,2.40634 3.00367,7.33527 -6.72106,18.3028 -16.82458,22.40039 -0.32349,0.1312 -1.13489,0.52625 -2.13245,1.03687 l 8.52973,-2.4259 c 10.83404,-5.2948 17.19751,-14.45017 14.39874,-21.28528 -0.57355,-1.40064 -1.487,-2.6081 -2.68024,-3.5997 l -6e-5,0 z"
           style="fill:url(#linearGradient4149)"
           inkscape:connector-curvature="0" />
        <path
           id="path3787"
           d="m 559.48437,294.13211 -2.77801,1.46729 c 0.6192,0.72421 1.12408,1.52041 1.48688,2.40634 3.00366,7.33526 -6.72107,18.30279 -16.82459,22.40039 -0.32354,0.13119 -1.13495,0.52624 -2.13244,1.03686 l 8.52966,-2.4259 c 10.83411,-5.2948 17.19757,-14.45016 14.39868,-21.28525 -0.57348,-1.40069 -1.48694,-2.60812 -2.68011,-3.59973 l -6e-5,0 z"
           style="fill:url(#linearGradient4203)"
           inkscape:connector-curvature="0" />
        <path
           id="path3752"
           d="m 563.35773,293.24673 -2.77802,1.46729 c 0.6192,0.72421 1.12402,1.52042 1.48682,2.40634 3.00366,7.33527 -6.72107,18.30277 -16.82453,22.40039 -0.32354,0.1312 -1.13495,0.52625 -2.13244,1.03687 l 8.52972,-2.42591 c 10.83405,-5.2948 17.19751,-14.45016 14.39868,-21.28527 -0.57354,-1.40064 -1.487,-2.6081 -2.68017,-3.5997 l -6e-5,0 z"
           style="fill:url(#linearGradient4155)"
           inkscape:connector-curvature="0" />
        <path
           id="path3735"
           d="m 573.94177,290.57153 -3.87359,1.15424 c 0.60113,1.07233 1.03576,2.21136 1.27166,3.42364 1.95282,10.03781 -13.12298,21.4628 -26.93884,24.10242 -2.12537,0.40607 -18.08252,5.36893 -20.13208,5.51193 l 0,2.5824 25.94238,-7.60519 c 16.45569,-3.44092 28.13965,-14.05329 26.21509,-23.94593 -0.37292,-1.91671 -1.22461,-3.66833 -2.48456,-5.22351 l -6e-5,0 z"
           style="fill:url(#linearGradient4205)"
           inkscape:connector-curvature="0" />
        <path
           id="path3783"
           d="m 573.94177,290.57153 -3.87359,1.15424 c 0.60113,1.07233 1.03576,2.21136 1.27166,3.42364 1.95282,10.03781 -13.12298,21.4628 -26.93884,24.10242 -2.12537,0.40607 -18.08252,5.36893 -20.13208,5.51193 l 0,2.5824 25.94238,-7.60519 c 16.45569,-3.44092 28.13965,-14.05329 26.21509,-23.94593 -0.37292,-1.91671 -1.22461,-3.66833 -2.48456,-5.22351 l -6e-5,0 z"
           style="fill:url(#linearGradient4207)"
           inkscape:connector-curvature="0" />
        <path
           id="path3799"
           d="m 546.06787,299.81683 -2.48163,1.31076 c 0.55316,0.64698 1.00415,1.35825 1.32819,2.14966 2.68329,6.5528 -6.00403,16.35028 -15.02966,20.01074 -0.28907,0.11722 -1.01392,0.47016 -1.90497,0.92627 l 7.61975,-2.16708 c 9.67828,-4.73001 15.36291,-12.90869 12.86267,-19.01462 -0.51233,-1.25125 -1.32831,-2.32993 -2.39423,-3.21573 l -1.2e-4,0 z"
           style="fill:url(#linearGradient4209)"
           inkscape:connector-curvature="0" />
        <path
           id="path3803"
           d="m 537.42401,302.05386 -2.48163,1.31079 c 0.5531,0.64692 1.00409,1.35819 1.32819,2.14963 2.68329,6.55277 -6.00403,16.35028 -15.02979,20.01074 -0.28894,0.11725 -1.01385,0.47016 -1.9049,0.92627 l 7.61975,-2.16711 c 9.67828,-4.72998 15.36291,-12.90863 12.86267,-19.01456 -0.51239,-1.25125 -1.32831,-2.32992 -2.39423,-3.21569 l -6e-5,-7e-5 z"
           style="fill:url(#linearGradient4153)"
           inkscape:connector-curvature="0" />
        <path
           id="rect3861"
           d="m 155.51013,314.38232 c 5.19173,-1.26669 9.69452,-0.92578 12.39394,3.62299 l -1.56093,11.20404 c -4.30408,3.86469 -8.60817,3.09943 -12.91225,0.0973 l 2.07923,-14.92434 1e-5,0 z"
           style="fill:url(#linearGradient4211)"
           inkscape:connector-curvature="0" />
        <path
           id="path3864"
           d="m 168.20378,316.42529 c 5.10234,-0.75763 9.4949,-0.35861 11.79631,3.44828 l -1.48566,10.66378 c -4.05915,1.86234 -8.12777,3.26142 -12.28961,0.0926 l 1.97897,-14.20465 -1e-5,0 z"
           style="fill:url(#linearGradient4213)"
           inkscape:connector-curvature="0" />
        <path
           id="path4025"
           d="m 260.10486,318.78116 c -20.94342,0 -41.00049,1.12024 -59.53157,3.16934 l -2.28893,0.2543 1.07598,2.03464 c 4.17634,7.92841 10.36818,13.21777 18.19401,16.55087 7.82587,3.33307 17.26119,4.76575 28.23007,5.28217 21.93775,1.03284 50.0543,-1.64725 83.63376,-1.25208 31.08817,0.36585 56.03525,1.17615 76.08225,1.48685 l 0.70428,-2.97366 C 376.2493,328.5119 322.0925,318.78116 260.10486,318.78116 z m 0,3.13022 c 57.07547,0 107.5202,8.43811 137.78537,21.10919 -18.75107,-0.36462 -40.82508,-1.00543 -68.43292,-1.33035 -33.76664,-0.39734 -61.96256,2.2864 -83.51638,1.27163 -10.77693,-0.50738 -19.88722,-1.94409 -27.17364,-5.04742 -6.54409,-2.78714 -11.57248,-6.98303 -15.33776,-13.08807 17.72152,-1.8675 36.77012,-2.91498 56.67533,-2.91498 z"
           inkscape:connector-curvature="0"
           style="opacity:0.9;fill:#191919;fill-rule:nonzero;stroke-width:5" />
        <path
           stroke-miterlimit="4"
           id="rect2864"
           d="m 172.55818,165.1709 -48.67387,7.80591 c -16.99717,2.72583 -30.64274,30.53355 -31.927561,65.63607 1.284821,35.10251 14.930391,62.91025 31.927561,65.63611 l 48.67387,7.80588 c 8.32369,0 15.02472,-6.70108 15.02472,-15.02487 l 0,-116.8342 c 0,-8.32382 -6.70103,-15.0249 -15.02473,-15.0249 l 1e-5,0 z"
           inkscape:connector-curvature="0"
           style="opacity:0.9;fill:#262626;fill-opacity:0.99607801;stroke:#191919;stroke-width:5;stroke-miterlimit:4" />
        <path
           stroke-miterlimit="4"
           id="path3703"
           d="m 442.67071,143.74869 c -1.85879,0 -3.68939,0.20794 -5.49734,0.60647 -0.006,-0.006 -0.013,-0.0132 -0.0195,-0.0195 l -39.96814,7.70807 c -11.09824,4.13478 -20.03296,8.9348 -20.03296,20.0332 l 0,133.07201 c 0,11.09841 8.93472,15.89843 20.03296,20.0332 l 39.96814,7.70807 c 0.007,-0.006 0.013,-0.0132 0.0195,-0.0195 1.80792,0.39856 3.63849,0.6065 5.49734,0.6065 28.41925,0 51.45871,-35.91113 51.53013,-94.86421 -0.0714,-58.95308 -23.11087,-94.8642 -51.53013,-94.8642 l 0,-7e-5 z"
           inkscape:connector-curvature="0"
           style="opacity:0.9;fill:#262626;fill-opacity:0.99607801;stroke:#191919;stroke-width:5;stroke-miterlimit:4;stroke-dashoffset:0" />
        <path
           id="path4157"
           d="m 260.10486,156.88786 c -20.88716,0 -40.88457,-1.12686 -59.3555,-3.16931 16.06424,-30.49657 61.34228,-18.94722 128.68838,-19.73973 31.1055,-0.36606 56.05735,-1.1765 76.08225,-1.48685 -29.52371,14.60807 -83.59265,24.39589 -145.41513,24.39589 z"
           inkscape:connector-curvature="0"
           style="opacity:0.9;fill:#262626;fill-opacity:0.99607801" />
        <path
           id="path4159"
           d="m 260.10486,156.88786 c -2.00736,0 -3.99604,-0.0185 -5.98642,-0.0391 0.51225,-10.12367 4.0242,-18.94171 9.13614,-24.31763 2.9245,0.0473 5.94427,0.12303 9.03833,0.2152 -5.36249,5.12869 -9.13556,13.91557 -9.84043,24.14155 -0.78335,0.003 -1.56177,0 -2.34762,0 z"
           inkscape:connector-curvature="0"
           style="opacity:0.5;fill:#000000;fill-opacity:0.99607801" />
        <path
           stroke-miterlimit="4"
           id="path4161"
           d="m 628.64111,174.25191 -3.18884,-0.37171 c -13.48779,-1.57304 -23.59418,-16.26355 -24.59119,-34.13859 l -0.2348,-4.46051 3.28662,3.03236 c 9.94721,9.19051 17.71887,20.35085 23.41748,33.02347 l 1.31073,2.91498 z"
           inkscape:connector-curvature="0"
           style="fill:#212121;fill-rule:nonzero;stroke:#191919;stroke-width:5;stroke-miterlimit:4" />
        <path
           stroke-miterlimit="4"
           id="path4163"
           d="m 499.9613,167.3667 c 0,0 49.88092,14.14619 65.96949,20.02179 16.80242,6.13631 61.88928,24.50662 61.88928,24.50662 0,0 -5.47217,-26.58758 -19.08344,-36.25888 -48.34454,-34.35046 -145.66992,-33.71434 -145.66992,-33.71434"
           inkscape:connector-curvature="0"
           style="opacity:0.5;fill:none;stroke:#292929;stroke-width:6;stroke-linecap:round;stroke-linejoin:round;stroke-miterlimit:4" />
        <path
           id="path4165"
           d="m 554.11035,180.30075 -2.77801,-1.46727 c 0.61926,-0.7242 1.12408,-1.52043 1.48687,-2.40634 3.00367,-7.3353 -6.72106,-18.30278 -16.82458,-22.40038 -0.32349,-0.13122 -1.13489,-0.52627 -2.13245,-1.03688 l 8.52973,2.42589 c 10.83404,5.2948 17.19751,14.45017 14.39874,21.28528 -0.57355,1.40066 -1.487,2.60811 -2.68024,3.5997 l -6e-5,0 z"
           style="fill:url(#linearGradient4185)"
           inkscape:connector-curvature="0" />
        <path
           id="path4167"
           d="m 559.48437,183.09358 -2.77801,-1.46728 c 0.6192,-0.7242 1.12408,-1.52042 1.48688,-2.40631 3.00366,-7.33532 -6.72107,-18.30281 -16.82459,-22.40041 -0.32354,-0.13121 -1.13495,-0.52628 -2.13244,-1.03688 l 8.52966,2.4259 c 10.83411,5.2948 17.19757,14.45018 14.39868,21.28527 -0.57348,1.40066 -1.48694,2.60812 -2.68011,3.59971 l -6e-5,0 z"
           style="fill:url(#linearGradient4187)"
           inkscape:connector-curvature="0" />
        <path
           id="path4169"
           d="m 563.35773,183.97891 -2.77802,-1.46727 c 0.6192,-0.7242 1.12402,-1.52043 1.48682,-2.40632 3.00366,-7.33532 -6.72107,-18.30282 -16.82453,-22.40041 -0.32354,-0.13121 -1.13495,-0.52628 -2.13244,-1.03687 l 8.52972,2.42589 c 10.83405,5.2948 17.19751,14.45017 14.39868,21.28527 -0.57354,1.40068 -1.487,2.60812 -2.68017,3.59971 l -6e-5,0 z"
           style="fill:url(#linearGradient4189)"
           inkscape:connector-curvature="0" />
        <path
           id="path4171"
           d="m 573.94177,186.65417 -3.87359,-1.15426 c 0.60113,-1.07228 1.03576,-2.21135 1.27166,-3.42363 1.95282,-10.03781 -13.12298,-21.4628 -26.93884,-24.10243 -2.12537,-0.40607 -18.08252,-5.3689 -20.13208,-5.51192 l 0,-2.5824 25.94238,7.60521 c 16.45569,3.44089 28.13965,14.0533 26.21509,23.94594 -0.37292,1.9167 -1.22461,3.66829 -2.48456,5.22349 l -6e-5,0 z"
           style="fill:url(#linearGradient4191)"
           inkscape:connector-curvature="0" />
        <path
           id="path4173"
           d="m 573.94177,186.65417 -3.87359,-1.15426 c 0.60113,-1.07228 1.03576,-2.21135 1.27166,-3.42363 1.95282,-10.03781 -13.12298,-21.4628 -26.93884,-24.10243 -2.12537,-0.40607 -18.08252,-5.3689 -20.13208,-5.51192 l 0,-2.5824 25.94238,7.60521 c 16.45569,3.44089 28.13965,14.0533 26.21509,23.94594 -0.37292,1.9167 -1.22461,3.66829 -2.48456,5.22349 l -6e-5,0 z"
           style="fill:url(#linearGradient4193)"
           inkscape:connector-curvature="0" />
        <path
           id="path4175"
           d="m 546.06787,177.40881 -2.48163,-1.31076 c 0.55316,-0.64694 1.00415,-1.35823 1.32819,-2.14964 2.68329,-6.55279 -6.00403,-16.35028 -15.02966,-20.01076 -0.28907,-0.11723 -1.01392,-0.47014 -1.90497,-0.92625 l 7.61975,2.1671 c 9.67828,4.72996 15.36291,12.90864 12.86267,19.01462 -0.51233,1.25122 -1.32831,2.32989 -2.39423,3.21569 l -1.2e-4,0 z"
           style="fill:url(#linearGradient4195)"
           inkscape:connector-curvature="0" />
        <path
           id="path4177"
           d="m 537.42401,175.17178 -2.48163,-1.31076 c 0.5531,-0.64692 1.00409,-1.35823 1.32819,-2.14964 2.68329,-6.55279 -6.00403,-16.35028 -15.02979,-20.01076 -0.28894,-0.11722 -1.01385,-0.47012 -1.9049,-0.92625 l 7.61975,2.1671 c 9.67828,4.72998 15.36291,12.90866 12.86267,19.01459 -0.51239,1.25122 -1.32831,2.32989 -2.39423,3.21569 l -6e-5,3e-5 z"
           style="fill:url(#linearGradient4197)"
           inkscape:connector-curvature="0" />
        <path
           id="path4179"
           d="m 155.51013,162.84332 c 5.19173,1.26671 9.69452,0.9258 12.39394,-3.62298 l -1.56093,-11.20401 c -4.30408,-3.86472 -8.60817,-3.09943 -12.91225,-0.0973 l 2.07923,14.92431 1e-5,0 z"
           style="fill:url(#linearGradient4199)"
           inkscape:connector-curvature="0" />
        <path
           id="path4181"
           d="m 168.20378,160.80041 c 5.10234,0.75763 9.4949,0.3586 11.79631,-3.4483 l -1.48566,-10.66376 c -4.05915,-1.86233 -8.12777,-3.26142 -12.28961,-0.0926 l 1.97897,14.20468 -1e-5,0 z"
           style="fill:url(#linearGradient4201)"
           inkscape:connector-curvature="0" />
        <path
           id="path4183"
           d="m 260.10486,158.44447 c -20.94342,0 -41.00049,-1.12021 -59.53157,-3.16931 l -2.28893,-0.25432 1.07598,-2.03463 c 4.17634,-7.9284 10.36818,-13.21778 18.19401,-16.55086 7.82587,-3.33309 17.26119,-4.76576 28.23007,-5.28218 21.93775,-1.03283 50.0543,1.64724 83.63376,1.25207 31.08817,-0.36583 56.03525,-1.17615 76.08225,-1.48685 l 0.70428,2.97368 c -29.95541,14.82166 -84.11221,24.5524 -146.09985,24.5524 z m 0,-3.13017 c 57.07547,0 107.5202,-8.43814 137.78537,-21.10919 -18.75107,0.36459 -40.82508,1.00541 -68.43292,1.33032 -33.76664,0.39734 -61.96256,-2.28639 -83.51638,-1.27164 -10.77693,0.50739 -19.88722,1.94409 -27.17364,5.04743 -6.54409,2.78717 -11.57248,6.98303 -15.33776,13.08809 17.72152,1.86749 36.77012,2.91499 56.67533,2.91499 z"
           inkscape:connector-curvature="0"
           style="opacity:0.9;fill:#191919;fill-rule:nonzero;stroke-width:5" />
      </g>
    </g>
  </g>
</svg>
